<svg width="300" height="35" viewBox="0 0 300 35" fill="none" xmlns="http://www.w3.org/2000/svg">
<path d="M6.37903 20.8811V27.018H11.163C12.9854 27.1318 14.5801 25.8815 14.6941 24.063V23.9493C14.6941 22.0173 13.0994 20.7671 10.7076 20.7671L6.37903 20.8811ZM6.37903 11.9028V17.3579H10.8213C12.4159 17.4716 13.8967 16.335 14.0104 14.744V14.5166C14.0104 13.0393 12.5297 11.9027 10.4793 11.9027L6.37903 11.9028ZM0.000244141 8.26613H8.65701C12.5298 8.26613 13.8967 8.37982 15.0358 8.83433C17.2 9.85719 18.4529 11.9028 18.4529 14.2897C18.4529 16.5626 17.7695 17.6992 15.4912 18.8357C17.8833 19.6313 19.478 21.9042 19.2503 24.4046C19.2503 28.155 16.2886 30.655 11.9604 30.655H0.000538719V27.0184H1.70909V11.9031H0.000538719V8.26619" fill="white"/>
<path d="M33.8303 20.0857C33.8303 18.1536 32.2358 16.6762 30.4132 16.6762H30.2995C28.363 16.6762 26.7684 18.1536 26.4267 19.9722L33.8303 20.0857ZM38.1606 25.0861C37.3623 28.8368 34.2869 31.1096 30.1864 31.1096C25.4024 31.1096 21.8713 27.3592 21.8713 22.1313C21.8713 16.9034 25.4024 13.153 30.1864 13.153C32.8061 13.153 35.312 14.4031 36.7929 16.6762C37.932 18.6083 38.6154 20.7676 38.5014 23.0407H26.1996C26.6553 27.473 29.503 27.7005 30.3004 27.7005C31.8949 27.8143 33.3758 26.6778 33.8315 25.2001L38.1597 25.0865" fill="white"/>
<path d="M52.3979 19.5176H60.2573V30.655H57.7513V27.1321C57.2959 27.9274 56.7262 28.6092 56.0427 29.2912C54.5622 30.5415 52.7396 31.2234 50.9171 31.2234C45.6774 31.2234 41.5769 26.1092 41.5769 19.5176C41.5769 12.9259 45.6774 7.69798 50.8034 7.69798C53.6508 7.58443 56.1567 9.1755 57.5236 11.5621V8.03892H59.9156V15.1987H57.4099C57.1819 14.1759 56.7262 13.2667 56.1567 12.4711C55.0176 10.9937 53.1954 10.0845 51.3728 9.97081C48.6391 9.97081 44.5386 12.3575 44.5386 19.29C44.5386 24.7451 47.5 28.723 51.3728 28.723C54.4482 28.6092 56.9542 26.3364 57.5236 23.3817C57.6376 22.8135 57.6376 22.1315 57.6376 21.5633H52.2839L52.3979 19.5176Z" fill="white"/>
<path d="M74.4949 21.904L72.9013 22.1315C67.6616 22.8134 65.9531 23.7226 65.9531 25.8819C66.0671 27.8141 67.6616 29.1779 69.4842 29.1779C71.9898 29.0641 74.1541 27.2456 74.4958 24.7453L74.4949 21.904ZM79.3929 30.7689H74.4949V27.7004C73.3558 29.8599 71.0778 31.1098 68.6859 31.1098C65.8382 31.337 63.3322 29.0642 63.1045 26.2229V25.882C63.1045 22.5863 65.9522 20.995 72.7864 20.3131L74.3809 20.1995V18.4947C74.3809 16.5627 72.9004 15.3125 70.5084 15.3125C68.1164 15.3125 66.8633 16.108 66.4076 18.381H63.7879C64.0156 17.0173 64.699 15.7671 65.7242 14.8578C66.9773 13.835 68.6859 13.3803 70.2804 13.3803C73.8115 13.3803 76.7732 14.9715 76.7732 19.2901V28.7231H79.1652L79.3929 30.7689Z" fill="white"/>
<path d="M86.5704 16.7896C87.3678 15.6531 88.8487 13.2664 92.0382 13.2664C94.3162 13.2664 95.5691 14.403 96.0248 16.7896C96.4806 15.9941 96.936 15.3121 97.6197 14.6303C98.6449 13.7211 99.8978 13.1528 101.265 13.1528C103.884 13.1528 105.365 14.8576 105.365 17.8125V28.609H107.757V30.6547H102.973V18.7217C102.973 16.335 102.176 15.1985 100.467 15.1985C97.5057 15.1985 95.9108 18.7217 95.9108 19.9717V28.609H98.4169V30.6547H93.4051V18.3808C93.4051 16.2214 92.6076 15.3123 90.899 15.3123C88.2793 15.3123 86.3427 18.6083 86.3427 20.1992V28.7228H88.8487V30.7686H81.4446V28.7228H83.9506V15.5395H81.4446V13.4938H86.4567L86.5704 16.7896Z" fill="white"/>
<path d="M115.16 23.4951C115.16 26.3363 117.324 28.6092 120.058 28.8367C123.019 28.8367 124.842 26.2226 124.842 22.0176C124.842 17.8125 122.906 15.3121 120.058 15.3121C117.552 15.3121 115.046 18.0397 115.046 20.54L115.16 23.4951ZM110.376 7.24323H115.16V17.1309C115.843 15.8807 117.78 13.3802 120.741 13.3802C124.614 13.3802 127.575 17.3581 127.575 22.3585C127.575 27.0183 124.386 30.9958 120.741 30.9958C117.666 30.9958 116.185 28.9502 115.16 27.5864V30.7687H110.262V28.7229H112.654V9.28884H110.376V7.24323Z" fill="white"/>
<path d="M129.038 7.24332H133.936V28.7231H136.214V30.7688H128.924V28.7231H131.43V9.17554H129.038V7.24332Z" fill="white"/>
<path d="M150.454 20.7676C150.454 19.1765 149.884 17.6991 148.745 16.449C147.948 15.7672 146.923 15.3125 145.898 15.4262C143.734 15.5398 141.911 17.0174 141.342 19.0628C141.228 19.6311 141 20.1993 141 20.7675L150.454 20.7676ZM152.96 25.9955C152.732 27.0183 152.276 27.814 151.593 28.6093C150.226 30.2006 148.29 31.1096 146.126 31.1096C141.455 31.1096 138.152 27.473 138.152 22.2451C138.152 17.2444 141.455 13.3802 145.67 13.3802C149.884 13.3802 153.302 16.6762 153.302 22.6995H140.886C141.114 25.1997 141.683 26.6774 142.822 27.8139C143.734 28.6092 144.873 29.064 146.012 29.064C147.948 29.064 149.201 28.1549 150.112 26.1089L152.96 25.9955Z" fill="white"/>
<path d="M166.515 12.471L163.554 22.4722H169.477L166.515 12.471ZM163.781 8.26597H169.249L175.514 27.1319H177.223V30.7686H172.097L170.616 25.8816H162.642L161.161 30.7686H155.922V27.1319H157.631L163.781 8.26597Z" fill="white"/>
<path d="M176.994 13.6075H183.828V16.9035H182.119L184.512 27.0184L187.359 13.6078H191.802L194.649 26.7912L196.927 16.9035H195.219V13.6075H202.053V16.9035H200.573L196.927 30.655H192.371L189.524 18.8357L186.79 30.655H182.233L178.474 16.9035H176.994V13.6075Z" fill="white"/>
<path d="M214.129 22.6999C210.14 23.0405 207.521 23.3817 207.521 25.7681C207.521 27.1321 208.66 28.0412 210.369 28.0412C212.419 28.0412 214.128 26.4503 214.242 24.4046V24.2909V22.6999H214.129ZM218.229 27.4731H219.71V30.7688H214.357V28.723C213.103 30.314 211.167 31.1096 209.117 31.1096C205.7 31.1096 203.08 28.8368 203.08 25.768C203.08 20.7676 208.775 20.1994 214.243 19.7447C214.243 17.1307 213.331 16.3353 211.167 16.3353C209.003 16.3353 208.206 17.3581 208.092 18.9492V19.0628L203.991 18.9492C204.219 15.5397 206.953 13.3803 211.053 13.3803C215.837 13.3803 218.343 15.5397 218.343 19.4039L218.229 27.4731Z" fill="white"/>
<path d="M227.786 16.3352C228.925 14.176 230.178 13.2667 232.114 13.2667C232.798 13.2667 233.367 13.3803 234.051 13.4939V17.4718C233.367 17.3581 232.684 17.2445 232.001 17.2445C229.836 17.1309 228.014 18.722 227.9 20.7677V27.3593H229.95V30.655H221.977V27.3593H223.686V16.9035H221.977V13.6075H227.786V16.3352Z" fill="white"/>
<path d="M246.807 20.0857C246.807 18.1536 245.213 16.6762 243.39 16.6762H243.276C241.34 16.6762 239.745 18.1536 239.403 19.9722L246.807 20.0857ZM251.249 25.0861C250.454 28.8368 247.379 31.1096 243.278 31.1096C238.494 31.1096 234.963 27.3592 234.963 22.1313C234.963 16.9034 238.494 13.153 243.278 13.153C245.898 13.153 248.404 14.4031 249.885 16.6762C251.024 18.6083 251.707 20.7676 251.593 23.0407H239.292C239.747 27.473 242.595 27.7005 243.392 27.7005C244.987 27.8143 246.468 26.6778 246.923 25.2001L251.252 25.0865" fill="white"/>
<path d="M295.146 5.60209C295.308 5.57416 295.449 5.52214 295.57 5.44425C295.691 5.36665 295.788 5.26231 295.862 5.13033C295.933 4.99924 295.971 4.82965 295.971 4.61978C295.971 4.32997 295.888 4.09366 295.726 3.91172C295.567 3.72948 295.305 3.63866 294.946 3.63866H293.042V5.64206H294.639C294.816 5.64206 294.987 5.62854 295.146 5.60209ZM294.987 2.99467C295.535 2.99467 295.962 3.12811 296.271 3.39676C296.581 3.66511 296.734 4.03252 296.734 4.49869C296.734 4.84846 296.657 5.15356 296.498 5.41662C296.339 5.67968 296.086 5.85957 295.735 5.95597V5.97155C295.903 6.00388 296.039 6.05708 296.145 6.13233C296.248 6.20816 296.33 6.29781 296.392 6.40215C296.454 6.5065 296.501 6.62319 296.531 6.75192C296.56 6.88066 296.584 7.01469 296.598 7.1546C296.61 7.29451 296.616 7.43677 296.622 7.5808C296.628 7.72629 296.643 7.86825 296.663 8.00728C296.684 8.1469 296.716 8.28034 296.757 8.40555C296.796 8.53223 296.858 8.64304 296.937 8.73975H296.083C296.03 8.68067 295.992 8.59984 295.974 8.49873C295.953 8.39673 295.941 8.2824 295.938 8.15571C295.933 8.0305 295.927 7.895 295.921 7.74951C295.915 7.60519 295.9 7.46323 295.874 7.32332C295.85 7.1837 295.824 7.05143 295.791 6.92505C295.759 6.79954 295.709 6.68961 295.638 6.59526C295.57 6.50091 295.476 6.42655 295.364 6.37011C295.252 6.31339 295.102 6.28576 294.913 6.28576H293.042V8.73975H292.276V2.99467H294.987Z" fill="white"/>
<path d="M294.418 1.41085C291.844 1.41085 289.748 3.50119 289.748 6.07031C289.748 8.63974 291.844 10.7301 294.418 10.7301C296.992 10.7301 299.09 8.63968 299.09 6.07031C299.09 3.50119 296.992 1.41085 294.418 1.41085ZM294.418 11.6392C291.341 11.6392 288.837 9.14081 288.837 6.07031C288.837 3.00006 291.341 0.50176 294.418 0.50176C297.496 0.50176 300 3.00006 300 6.07031C300 9.14087 297.496 11.6392 294.418 11.6392Z" fill="white"/>
<path d="M253.636 28.5177H255.765V30.5957H253.636V28.5177Z" fill="white"/>
<path d="M263.248 29.3398C265.582 29.3398 266.978 27.4675 266.978 24.3852C266.978 21.4857 265.514 19.6361 263.248 19.6361C261.029 19.6361 259.656 21.4857 259.656 24.4766C259.656 27.536 261.006 29.3398 263.248 29.3398ZM257.665 24.4308C257.665 20.6866 259.976 18.1063 263.317 18.1063C266.589 18.1063 268.969 20.7777 268.969 24.4308C268.969 28.2441 266.635 30.8696 263.271 30.8696C259.93 30.8696 257.665 28.2668 257.665 24.4308Z" fill="white"/>
<path d="M273.777 21.1201C274.372 19.8415 274.693 19.4534 275.242 18.9284C275.882 18.3802 276.683 18.0834 277.484 18.0834C277.781 18.0834 278.194 18.1291 278.811 18.2206V20.0243C278.194 19.9101 277.827 19.8645 277.507 19.8645C274.166 19.8645 273.777 23.3121 273.777 23.4949V29.1572H275.882V30.5957H270.253V29.1572H272.015V19.7501H270.184V18.2888H273.777V21.1201Z" fill="white"/>
<path d="M288.468 22.8328C288.468 21.4858 286.821 19.5679 284.944 19.5679C282.93 19.5679 281.694 21.2117 281.694 23.8832C281.694 26.6002 282.953 28.2444 285.058 28.2444C286.866 28.2444 288.468 26.4861 288.468 25.0477V22.8328ZM288.468 27.5822C287.347 29.1575 286.111 29.6824 284.761 29.6824C281.809 29.6824 279.772 27.2623 279.772 23.7688C279.772 20.4581 281.763 18.1065 284.555 18.1065C286.821 18.1065 287.827 19.5449 288.468 20.4811V18.289H291.946V19.7504H290.23V29.8423C290.23 32.8103 288.33 34.5 284.989 34.5C282.953 34.5 281.214 33.6094 280.39 32.1711C280.23 31.8741 280.092 31.5773 279.887 30.9609H281.877C282.61 32.4449 283.479 32.9928 285.127 32.9928C287.209 32.9928 288.468 31.92 288.468 30.1389V27.5818" fill="white"/>
</svg>
