<svg width="138" height="47" viewBox="0 0 138 47" fill="none" xmlns="http://www.w3.org/2000/svg">
<g clip-path="url(#clip0_1_209)">
<path d="M61.0598 19.0947C60.8686 19.0947 60.6984 18.9244 60.6984 18.7332V16.729C60.6984 16.5378 60.8686 16.3675 61.0598 16.3675H66.308C66.4991 16.3675 66.6694 16.5378 66.6694 16.729V21.9562C66.6694 22.1922 66.5828 22.4043 66.4125 22.5745C65.0474 23.8112 63.3837 24.5161 61.1852 24.5161C55.489 24.5161 53.7595 20.0356 53.7595 16.8335C53.7595 13.7181 55.489 9.1748 61.1852 9.1748C63.4464 9.1748 65.0893 9.98429 66.4543 11.3523C66.6037 11.5017 66.6037 11.7377 66.4543 11.887L65.0893 13.3596C64.9608 13.4881 64.7487 13.4881 64.5994 13.3596C63.7242 12.6129 62.3382 11.9945 61.1852 11.9945C57.3648 11.9945 56.8332 15.579 56.8332 16.7947C56.8332 18.0104 57.3678 21.7651 61.1852 21.7651C62.0186 21.7651 63.1059 21.4664 63.6406 20.9974V19.0977H61.0598V19.0947Z" fill="white"/>
<path d="M72.5388 13.4614C76.186 13.4614 76.4847 15.8301 76.4847 18.0077V23.9608C76.4847 24.1519 76.3144 24.3222 76.1232 24.3222H74.8418C74.6297 24.3222 74.4356 24.1729 74.3729 23.9817L74.2653 23.6412C73.6052 24.1968 72.6852 24.4955 71.7264 24.5373C68.3988 24.6866 67.7805 22.4464 67.7805 21.1858C67.7805 18.2616 70.1492 17.6432 72.3477 17.6432C72.7957 17.6432 73.2019 17.706 73.5843 17.7926C73.5843 16.2991 73.0944 16.0422 72.1535 16.0422C71.7055 16.0422 70.6391 16.2782 69.6355 16.6605C69.4443 16.7262 69.2292 16.6396 69.1456 16.4484L68.5064 14.934C68.4197 14.7429 68.5064 14.5278 68.6766 14.4232C69.8714 13.8677 71.1529 13.4614 72.5388 13.4614ZM73.5843 20.0329C73.2647 19.9462 72.7509 19.7969 72.261 19.7969C71.4068 19.7969 70.5316 20.0329 70.5316 21.0335C70.5316 21.6727 71.129 22.0132 71.7891 22.0132C72.5777 22.0132 73.3244 21.5652 73.5813 21.1829V20.0329H73.5843Z" fill="white"/>
<path d="M80.4339 23.9579C80.4339 24.1491 80.2636 24.3194 80.0724 24.3194H77.9188C77.7276 24.3194 77.5574 24.1491 77.5574 23.9579V14.0142C77.5574 13.823 77.7276 13.6527 77.9188 13.6527H79.1554C79.3675 13.6527 79.5617 13.8021 79.6244 13.9933L79.7737 14.4622C80.5205 13.823 81.545 13.4795 82.4621 13.4795C84.0183 13.4795 84.9592 13.8618 85.5984 14.5459C86.4736 13.8618 87.5191 13.4795 88.5854 13.4795C92.6597 13.4795 92.8091 16.3172 92.8091 18.8143V23.9549C92.8091 24.1461 92.6388 24.3164 92.4476 24.3164H90.2283C90.0371 24.3164 89.8669 24.1461 89.8669 23.9549V18.5395C89.8878 17.4283 89.8878 16.0423 88.4809 16.0423C87.6714 16.0423 87.0083 16.5322 86.6678 16.9594V23.9579C86.6678 24.1491 86.4975 24.3194 86.3063 24.3194H84.1079C83.9167 24.3194 83.7465 24.1491 83.7465 23.9579V18.5395C83.7674 17.4283 83.7674 16.0423 82.3605 16.0423C81.4644 16.0423 80.7804 16.5113 80.4398 16.9803V23.9579H80.4339Z" fill="white"/>
<path d="M103.993 18.9874C103.993 21.2695 102.861 24.5134 98.8938 24.5134C98.0186 24.5134 96.7163 24.128 96.098 23.5754L95.9695 23.9817C95.9068 24.1728 95.7126 24.3222 95.5005 24.3222H94.243C94.0518 24.3222 93.8816 24.1519 93.8816 23.9608V9.72764C93.8816 9.53647 94.0518 9.36621 94.243 9.36621H96.3967C96.5878 9.36621 96.7581 9.53647 96.7581 9.72764V13.8258C97.2689 13.5898 97.9738 13.4644 98.6787 13.4644C102.968 13.4614 103.993 16.6187 103.993 18.9874ZM101.131 18.9874C101.131 17.9419 100.832 16.0422 98.5055 16.0422C98.0156 16.0422 97.1822 16.2782 96.7551 16.553V21.0783C97.0329 21.4636 97.8005 21.9117 98.6757 21.9117C100.877 21.9117 101.131 19.8417 101.131 18.9874Z" fill="white"/>
<path d="M107.983 23.9578C107.983 24.1489 107.813 24.3192 107.622 24.3192H105.423C105.232 24.3192 105.062 24.1489 105.062 23.9578V9.72764C105.062 9.53647 105.232 9.36621 105.423 9.36621H107.622C107.813 9.36621 107.983 9.53647 107.983 9.72764V23.9578Z" fill="white"/>
<path d="M118.629 19.116C118.629 19.3281 118.459 19.4774 118.244 19.4774H111.929C112.099 20.735 112.888 21.8252 114.277 21.8252C115.066 21.8252 115.899 21.5684 116.646 21.0785C116.816 20.971 117.031 20.9919 117.156 21.1651L118.139 22.5093C118.268 22.6795 118.226 22.9155 118.076 23.0439C116.882 23.961 115.729 24.4508 114.277 24.4508C110.203 24.4508 108.942 21.2726 108.942 18.9667C108.942 16.7264 110.2 13.5034 114.277 13.5034C117.115 13.5034 118.695 15.3165 118.695 18.0915C118.692 18.432 118.671 18.7755 118.629 19.116ZM115.833 17.7719C115.812 16.8967 115.514 16.1081 114.277 16.0872C113.082 16.0872 112.335 16.7921 112.016 17.7719H115.833Z" fill="white"/>
<path d="M125.863 16.0006C125.801 16.1918 125.606 16.2993 125.394 16.2784C125.117 16.2366 124.818 16.1918 124.498 16.1918C123.814 16.1918 123.154 16.383 122.748 17.067V23.9581C122.748 24.1492 122.578 24.3195 122.386 24.3195H120.233C120.042 24.3195 119.871 24.1492 119.871 23.9581V14.0143C119.871 13.8231 120.042 13.6529 120.233 13.6529H121.469C121.681 13.6529 121.876 13.7813 121.959 13.9934L122.088 14.313C122.942 13.7574 123.838 13.5244 124.818 13.5244C125.179 13.5244 125.756 13.5662 126.225 13.6319C126.416 13.6529 126.544 13.8649 126.482 14.0382L125.863 16.0006Z" fill="white"/>
<path d="M127.336 15.2326C127.166 15.149 127.1 14.9339 127.187 14.7636C127.614 13.9751 128.062 12.8848 128.211 12.3531C127.402 12.0962 127.058 11.5197 127.058 10.6894C127.058 9.70663 127.784 8.93896 128.788 8.93896C130.195 8.93896 130.688 9.92169 130.688 10.8596C130.688 12.141 129.535 14.3604 128.725 15.5104C128.597 15.6807 128.385 15.7464 128.19 15.6597L127.336 15.2326Z" fill="white"/>
<path d="M134.12 17.6015C135.721 18.1152 137.767 18.7754 137.767 21.2307C137.767 23.1722 136.061 24.4955 133.755 24.4955C132.262 24.4955 131.067 24.1341 129.723 23.3634C129.531 23.2768 129.466 23.0438 129.573 22.8735L130.383 21.2516C130.49 21.0813 130.702 21.0156 130.873 21.1022C131.855 21.5712 132.835 21.9117 133.648 21.9117C134.266 21.9117 134.821 21.6548 134.821 21.2516C134.821 20.6333 134.012 20.3764 133.05 20.0986C131.536 19.6296 129.744 19.0322 129.744 16.792C129.744 14.722 131.216 13.4854 133.37 13.4854C133.925 13.4854 135.353 13.5929 137.19 14.4442C137.36 14.5308 137.447 14.7429 137.36 14.9131L136.572 16.6426C136.485 16.8129 136.273 16.8995 136.082 16.8129C135.273 16.4515 134.269 16.2155 133.713 16.1318C133.029 16.0243 132.539 16.2603 132.539 16.7083C132.542 17.0877 133.244 17.3237 134.12 17.6015Z" fill="white"/>
<path d="M57.6462 41.6408C57.6462 41.832 57.4759 42.0022 57.2848 42.0022H54.9818C54.7906 42.0022 54.6204 41.832 54.6204 41.6408V27.4317C54.6204 27.2406 54.7906 27.0703 54.9818 27.0703H57.2848C57.4759 27.0703 57.6462 27.2406 57.6462 27.4317V33.2563H63.8771V27.4317C63.8771 27.2406 64.0474 27.0703 64.2385 27.0703H66.5206C66.7118 27.0703 66.882 27.2406 66.882 27.4317V41.6408C66.882 41.832 66.7118 42.0022 66.5206 42.0022H64.2385C64.0474 42.0022 63.8771 41.832 63.8771 41.6408V36.0282H57.6462V41.6408Z" fill="white"/>
<path d="M77.5333 36.7957C77.5333 37.0078 77.3631 37.1571 77.148 37.1571H70.8334C71.0037 38.4147 71.7953 39.5049 73.1812 39.5049C73.9698 39.5049 74.8032 39.248 75.5499 38.7582C75.7202 38.6506 75.9353 38.6715 76.0607 38.8448L77.0435 40.1889C77.1719 40.3592 77.1301 40.5952 76.9807 40.7236C75.7859 41.6406 74.6329 42.1305 73.1812 42.1305C69.107 42.1305 67.8464 38.9523 67.8464 36.6464C67.8464 34.4061 69.104 31.1831 73.1812 31.1831C76.0189 31.1831 77.599 32.9962 77.599 35.7712C77.596 36.1147 77.5751 36.4552 77.5333 36.7957ZM74.7375 35.4515C74.7166 34.5764 74.4179 33.7878 73.1783 33.7669C71.9834 33.7669 71.2367 34.4718 70.9171 35.4515H74.7375Z" fill="white"/>
<path d="M81.4796 41.6408C81.4796 41.832 81.3094 42.0022 81.1182 42.0022H78.9198C78.7286 42.0022 78.5583 41.832 78.5583 41.6408V27.4078C78.5583 27.2166 78.7286 27.0464 78.9198 27.0464H81.1182C81.3094 27.0464 81.4796 27.2166 81.4796 27.4078V41.6408Z" fill="white"/>
<path d="M85.6404 41.8111V45.9063C85.6404 46.0975 85.4701 46.2677 85.279 46.2677H83.1253C82.9342 46.2677 82.7639 46.0975 82.7639 45.9063V31.6732C82.7639 31.482 82.9342 31.3118 83.1253 31.3118H84.3829C84.5949 31.3118 84.7891 31.4611 84.8518 31.6523L84.9803 32.0585C85.5986 31.5029 86.9009 31.1206 87.7761 31.1206C91.7459 31.1206 92.875 34.3645 92.875 36.6466C92.875 38.9526 91.9161 42.0023 87.9255 42.1726C87.1548 42.1726 86.3872 42.1516 85.6404 41.8111ZM85.6404 34.5557V39.078C86.0676 39.3558 86.9009 39.5888 87.3908 39.5888C89.7177 39.5888 90.0164 37.689 90.0164 36.6436C90.0164 35.7893 89.7595 33.7193 87.5611 33.7193C86.6859 33.7223 85.9182 34.1703 85.6404 34.5557Z" fill="white"/>
<path d="M32.8356 27.4646C26.2044 26.1414 22.0465 22.4763 18.1873 15.0566C18.1455 14.9759 18.1006 14.8893 18.0588 14.8057C18.0081 14.8296 17.9573 14.8564 17.9065 14.8803C19.8958 19.7611 22.3004 24.5433 25.9296 28.9133C28.1968 28.8894 30.0905 28.7072 31.9515 28.3398C32.7042 28.1905 34.0872 27.7155 32.8356 27.4646Z" fill="url(#paint0_radial_1_209)"/>
<path d="M0.504004 3.94465C1.17907 3.75348 2.30219 3.58023 3.63737 3.71465C2.92647 4.8527 3.01011 6.64192 3.47309 9.13608C3.52387 9.41387 3.57763 9.70062 3.62841 9.99036C3.02803 6.98543 2.58595 5.46803 0.5279 4.19556C0.444264 4.14179 0.274004 4.01036 0.504004 3.94465Z" fill="url(#paint1_radial_1_209)"/>
<path d="M3.63794 3.7145C4.16664 2.86917 5.15236 2.01787 6.80417 1.62956C9.49249 0.9993 13.2053 2.18514 15.1827 7.65736C15.8399 9.47944 16.503 11.3075 17.2079 13.1266C13.6176 6.42373 7.5808 4.10879 3.63794 3.7145Z" fill="url(#paint2_radial_1_209)"/>
<path d="M12.0163 26.0067C15.9233 28.1304 21.512 28.9608 25.9298 28.913C29.9473 33.7489 34.3472 37.8202 43.1589 40.8669C44.4403 41.309 44.4732 42.0498 41.2681 41.7302C39.7208 41.5748 37.9167 41.3269 36.1812 40.9954C31.5036 40.1052 27.0708 38.8358 23.334 37.3183C16.6909 34.6181 11.6907 30.7858 8.56924 25.4272C7.33262 23.3034 5.95262 19.716 5.78833 19.1963C6.55599 21.2603 8.13015 23.8949 12.0163 26.0067Z" fill="url(#paint3_radial_1_209)"/>
<path d="M17.9068 14.8832C16.2401 15.7106 14.6002 16.7292 12.9842 18.0256C14.0177 16.3797 15.6606 14.6263 17.3632 13.5241C17.3124 13.3927 17.2586 13.2613 17.2079 13.1328C13.6145 6.42998 7.58072 4.11505 3.63786 3.71777C2.92696 4.85583 3.0106 6.64505 3.47357 9.1392C3.52435 9.417 3.57812 9.70375 3.6289 9.99349C4.03513 12.0217 4.50111 14.7249 5.55851 18.4796C7.79877 26.4131 17.6141 29.0058 25.927 28.9162C22.3007 24.5432 19.8962 19.764 17.9068 14.8832Z" fill="url(#paint4_radial_1_209)"/>
<path d="M17.6558 19.089C15.9711 18.853 14.403 18.4826 12.9841 18.0226C24.5678 8.72105 37.4388 13.5092 51.7048 0.862209C52.5203 0.139352 52.2574 1.65974 50.5817 4.32416C49.124 6.6391 45.7487 10.812 38.5201 14.701C30.5568 15.5195 24.2302 13.9961 16.47 17.8225C16.8493 18.2825 17.2466 18.7036 17.6558 19.089Z" fill="url(#paint5_radial_1_209)"/>
<path d="M38.5169 14.7013C41.2978 14.4145 43.5172 14.1158 46.543 13.0405C47.1434 12.8284 47.0149 13.4825 46.0233 14.4683C45.1242 15.3614 43.8398 16.7055 40.4465 18.7755C37.1339 20.7948 31.7812 22.4884 26.7988 22.4884C23.3966 22.4884 20.2483 21.5355 17.6526 19.0922C23.6356 19.9315 31.0822 19.0981 38.5169 14.7013Z" fill="url(#paint6_radial_1_209)"/>
<path d="M17.6554 19.0891C17.2462 18.7038 16.8489 18.2826 16.4666 17.8226C24.2268 13.9962 30.5533 15.5196 38.5167 14.7012C31.082 19.0981 23.6354 19.9314 17.6554 19.0891Z" fill="url(#paint7_radial_1_209)"/>
</g>
<defs>
<radialGradient id="paint0_radial_1_209" cx="0" cy="0" r="1" gradientUnits="userSpaceOnUse" gradientTransform="translate(51.0462 8.94768) scale(32.4832 32.4829)">
<stop offset="0.6466" stop-color="#65BC46"/>
<stop offset="0.8052" stop-color="#63BB46"/>
<stop offset="0.8623" stop-color="#5CB947"/>
<stop offset="0.9031" stop-color="#51B647"/>
<stop offset="0.936" stop-color="#40B048"/>
<stop offset="0.9642" stop-color="#2AA94A"/>
<stop offset="0.9887" stop-color="#0FA14B"/>
<stop offset="1" stop-color="#009C4C"/>
</radialGradient>
<radialGradient id="paint1_radial_1_209" cx="0" cy="0" r="1" gradientUnits="userSpaceOnUse" gradientTransform="translate(17.8608 8.83708) scale(17.8154)">
<stop offset="0.857" stop-color="#F58220"/>
<stop offset="0.8693" stop-color="#F68B1F"/>
<stop offset="0.8956" stop-color="#F8981D"/>
<stop offset="0.9297" stop-color="#FAA01B"/>
<stop offset="1" stop-color="#FAA21B"/>
</radialGradient>
<radialGradient id="paint2_radial_1_209" cx="0" cy="0" r="1" gradientUnits="userSpaceOnUse" gradientTransform="translate(0.862448 24.9188) scale(24.3719 24.3719)">
<stop offset="0.6624" stop-color="#670000"/>
<stop offset="0.7041" stop-color="#6C0102"/>
<stop offset="0.7561" stop-color="#7C0506"/>
<stop offset="0.8136" stop-color="#950B0E"/>
<stop offset="0.8746" stop-color="#B81318"/>
<stop offset="0.8926" stop-color="#C4161C"/>
<stop offset="0.9032" stop-color="#CB1E20"/>
<stop offset="0.9324" stop-color="#DA3029"/>
<stop offset="0.9636" stop-color="#E33B2E"/>
<stop offset="1" stop-color="#E63E30"/>
</radialGradient>
<radialGradient id="paint3_radial_1_209" cx="0" cy="0" r="1" gradientUnits="userSpaceOnUse" gradientTransform="translate(24.7306 4.58663) scale(41.7115)">
<stop offset="0.595" stop-color="#80C342"/>
<stop offset="0.5964" stop-color="#82C441"/>
<stop offset="0.6171" stop-color="#99CB3B"/>
<stop offset="0.6408" stop-color="#ABD135"/>
<stop offset="0.6693" stop-color="#B8D532"/>
<stop offset="0.707" stop-color="#BFD730"/>
<stop offset="0.7909" stop-color="#C1D82F"/>
<stop offset="0.9065" stop-color="#C5D939"/>
<stop offset="1" stop-color="#CADB44"/>
</radialGradient>
<radialGradient id="paint4_radial_1_209" cx="0" cy="0" r="1" gradientUnits="userSpaceOnUse" gradientTransform="translate(26.6908 29.3476) scale(33.5143 33.5143)">
<stop stop-color="#FFF200"/>
<stop offset="0.4281" stop-color="#FFF001"/>
<stop offset="0.6357" stop-color="#FFE803"/>
<stop offset="0.7958" stop-color="#FFDB07"/>
<stop offset="0.9308" stop-color="#FEC90D"/>
<stop offset="1" stop-color="#FEBC11"/>
</radialGradient>
<radialGradient id="paint5_radial_1_209" cx="0" cy="0" r="1" gradientUnits="userSpaceOnUse" gradientTransform="translate(31.8044 56.5851) scale(59.6396 59.6396)">
<stop offset="0.7004" stop-color="#7F2A90"/>
<stop offset="0.7144" stop-color="#96218F"/>
<stop offset="0.7349" stop-color="#B1178E"/>
<stop offset="0.7584" stop-color="#C70E8D"/>
<stop offset="0.7859" stop-color="#D8088D"/>
<stop offset="0.8199" stop-color="#E3038C"/>
<stop offset="0.8676" stop-color="#EA018C"/>
<stop offset="1" stop-color="#EC008C"/>
</radialGradient>
<radialGradient id="paint6_radial_1_209" cx="0" cy="0" r="1" gradientUnits="userSpaceOnUse" gradientTransform="translate(21.3602 -9.57737) scale(33.4196 33.4196)">
<stop offset="0.869" stop-color="#41A3D5"/>
<stop offset="0.8851" stop-color="#49AFDB"/>
<stop offset="0.913" stop-color="#52BEE1"/>
<stop offset="0.9465" stop-color="#57C6E5"/>
<stop offset="1" stop-color="#59C9E6"/>
</radialGradient>
<radialGradient id="paint7_radial_1_209" cx="0" cy="0" r="1" gradientUnits="userSpaceOnUse" gradientTransform="translate(16.5563 19.6439) scale(22.9752 22.9752)">
<stop stop-color="#007DC5"/>
<stop offset="0.2381" stop-color="#1A80C5"/>
<stop offset="0.4862" stop-color="#2E83C6"/>
<stop offset="0.7387" stop-color="#3984C6"/>
<stop offset="1" stop-color="#3D85C6"/>
</radialGradient>
<clipPath id="clip0_1_209">
<rect width="137.403" height="46" fill="white" transform="translate(0.388428 0.5)"/>
</clipPath>
</defs>
</svg>
