<?xml version="1.0" encoding="utf-8"?>
<!-- Generator: Adobe Illustrator 24.2.1, SVG Export Plug-In . SVG Version: 6.00 Build 0)  -->
<svg version="1.1" id="Ebene_1" xmlns="http://www.w3.org/2000/svg" xmlns:xlink="http://www.w3.org/1999/xlink" x="0px" y="0px"
	 viewBox="0 0 134 44" style="enable-background:new 0 0 134 44;" xml:space="preserve">
<style type="text/css">
	.st0{clip-path:url(#SVGID_2_);fill:#507FC0;}
	.st1{clip-path:url(#SVGID_4_);fill:#AEBCE1;}
	.st2{clip-path:url(#SVGID_6_);fill:#63666F;}
	.st3{clip-path:url(#SVGID_8_);fill:#63666F;}
	.st4{clip-path:url(#SVGID_10_);fill:#63666F;}
	.st5{clip-path:url(#SVGID_12_);fill:#63666F;}
	.st6{clip-path:url(#SVGID_14_);fill:#63666F;}
</style>
<g>
	<g>
		<defs>
			<path id="SVGID_1_" d="M131.1,7.9C131.1,7.9,131,7.9,131.1,7.9H131h0l-4.2,0.3l0.8,11.6c0,0.7-0.2,1.5-0.8,2
				c-0.6,0.6-1.5,0.9-2.3,0.9h-18l-0.2,0.5c-0.6,1.3,0.1,2.7,1.7,3.3c0.2,0,0.4,0.1,0.6,0.1l18.4,3.6c0.2,0,0.5,0,0.7,0
				c0.6,0,1.3-0.1,1.8-0.5c0.7-0.4,1.2-1.1,1.3-1.8l3.3-17.1c0.2-1.3-0.5-2.4-1.7-2.9C131.9,8,131.5,7.9,131.1,7.9"/>
		</defs>
		<clipPath id="SVGID_2_">
			<use xlink:href="#SVGID_1_"  style="overflow:visible;"/>
		</clipPath>
		<rect x="100.9" y="2.9" class="st0" width="38.1" height="32.4"/>
	</g>
	<g>
		<defs>
			<path id="SVGID_3_" d="M123.5,0c-0.2,0-0.5,0-0.7,0.1h0h0l-15.1,4.1c-1.4,0.3-2.4,1.3-2.6,2.4l-2.4,13.2
				c-0.1,0.7,0.1,1.4,0.6,1.9c0.6,0.6,1.5,1,2.5,1h0.8l5.6-11.9c0.5-1.1,1.7-1.7,3.2-1.8l11.6-0.8l-0.4-5.7C126.2,1.1,125,0,123.5,0
				"/>
		</defs>
		<clipPath id="SVGID_4_">
			<use xlink:href="#SVGID_3_"  style="overflow:visible;"/>
		</clipPath>
		<rect x="97.4" y="-5" class="st1" width="34.3" height="32.8"/>
	</g>
	<g>
		<defs>
			<path id="SVGID_5_" d="M14.4,24.1c0-0.6,0-1.1-0.2-1.5c-0.6-2.1-2.3-3.7-4.9-3.7c-3.4,0-5.7,2.8-5.7,7.3c0,3.8,1.9,6.9,5.7,6.9
				c2.2,0,4.1-1.4,4.9-3.6c0.2-0.6,0.3-1.3,0.3-1.9V24.1z M17.9,32.9c0,4.4-0.9,7.1-2.8,8.8c-1.9,1.7-4.6,2.3-7,2.3
				c-2.3,0-4.9-0.5-6.4-1.6l0.9-2.7c1.3,0.8,3.3,1.5,5.6,1.5c3.6,0,6.2-1.9,6.2-6.7v-2.1h-0.1c-1,1.8-3.2,3.2-6.1,3.2
				c-4.8,0-8.2-4-8.2-9.3c0-6.5,4.3-10.2,8.7-10.2c3.4,0,5.1,1.7,6,3.3h0.1l0.1-2.9h3.1c-0.1,1.4-0.1,2.9-0.1,5.2L17.9,32.9
				L17.9,32.9z"/>
		</defs>
		<clipPath id="SVGID_6_">
			<use xlink:href="#SVGID_5_"  style="overflow:visible;"/>
		</clipPath>
		<rect x="-5" y="11.1" class="st2" width="28.1" height="37.9"/>
	</g>
	<g>
		<defs>
			<path id="SVGID_7_" d="M35.8,24.2c0-2.2-0.9-5.6-4.9-5.6c-3.6,0-5.1,3.2-5.4,5.6H35.8z M25.5,26.7c0.1,4.7,3.1,6.7,6.6,6.7
				c2.5,0,4.1-0.4,5.3-1l0.6,2.5c-1.2,0.5-3.4,1.2-6.5,1.2c-5.9,0-9.5-3.9-9.5-9.7s3.4-10.3,9-10.3c6.3,0,8,5.5,8,9
				c0,0.7,0,1.2-0.1,1.6L25.5,26.7L25.5,26.7z"/>
		</defs>
		<clipPath id="SVGID_8_">
			<use xlink:href="#SVGID_7_"  style="overflow:visible;"/>
		</clipPath>
		<rect x="17.1" y="11.1" class="st3" width="27.1" height="30.1"/>
	</g>
	<g>
		<defs>
			<path id="SVGID_9_" d="M42.8,32.2c1.1,0.6,2.9,1.4,4.7,1.4c2.5,0,3.7-1.2,3.7-2.9c0-1.6-1-2.5-3.5-3.5c-3.5-1.3-5.1-3.1-5.1-5.4
				c0-3.1,2.5-5.6,6.7-5.6c1.9,0,3.6,0.5,4.7,1.2L53,19.9c-0.8-0.5-2.1-1.2-3.9-1.2c-2.1,0-3.2,1.2-3.2,2.6c0,1.6,1.1,2.3,3.6,3.3
				c3.3,1.2,5,2.9,5,5.8c0,3.4-2.7,5.8-7.2,5.8c-2.1,0-4.1-0.5-5.4-1.4L42.8,32.2z"/>
		</defs>
		<clipPath id="SVGID_10_">
			<use xlink:href="#SVGID_9_"  style="overflow:visible;"/>
		</clipPath>
		<rect x="36.9" y="11.1" class="st4" width="22.7" height="30.1"/>
	</g>
	<g>
		<defs>
			<path id="SVGID_11_" d="M62,27.9c0,0.5,0,1,0.1,1.5c0.6,2.4,2.8,4.1,5.2,4.1c3.7,0,5.9-3,5.9-7.4c0-3.8-2-7.1-5.7-7.1
				c-2.4,0-4.7,1.6-5.3,4.3c-0.1,0.4-0.2,1-0.2,1.4V27.9z M58.6,22.8c0-2.5-0.1-4.4-0.1-6.3h3.1l0.2,3.3h0.1
				c1.4-2.3,3.7-3.7,6.8-3.7c4.7,0,8.2,3.9,8.2,9.7c0,6.9-4.3,10.3-8.8,10.3c-2.5,0-4.8-1.1-5.9-3h-0.1v10.4h-3.4L58.6,22.8
				L58.6,22.8z"/>
		</defs>
		<clipPath id="SVGID_12_">
			<use xlink:href="#SVGID_11_"  style="overflow:visible;"/>
		</clipPath>
		<rect x="53.4" y="11.1" class="st5" width="28.5" height="37.5"/>
	</g>
	<g>
		<defs>
			<path id="SVGID_13_" d="M91.4,25.9c-3.8-0.1-8.2,0.6-8.2,4.3c0,2.3,1.5,3.3,3.3,3.3c2.5,0,4.2-1.6,4.8-3.2
				c0.1-0.4,0.1-0.8,0.1-1.1V25.9z M94.8,31.1c0,1.6,0.1,3.3,0.3,4.6H92l-0.3-2.4h-0.1c-1.1,1.5-3.2,2.9-5.9,2.9
				c-3.9,0-5.9-2.8-5.9-5.5c0-4.6,4.1-7.2,11.6-7.2v-0.4c0-1.5-0.4-4.4-4.4-4.4c-1.8,0-3.7,0.5-5,1.5l-0.8-2.3
				c1.6-1,3.9-1.6,6.4-1.6c5.9,0,7.3,4,7.3,7.8L94.8,31.1L94.8,31.1z"/>
		</defs>
		<clipPath id="SVGID_14_">
			<use xlink:href="#SVGID_13_"  style="overflow:visible;"/>
		</clipPath>
		<rect x="74.8" y="11.1" class="st6" width="25.4" height="30"/>
	</g>
</g>
</svg>
