<svg width="102" height="59" viewBox="0 0 102 59" fill="none" xmlns="http://www.w3.org/2000/svg">
<path d="M61.0231 32.0357C64.8272 32.0357 67.8771 29.1823 67.8771 25.4186C67.8771 21.6537 64.8261 18.8003 61.0231 18.8003C57.22 18.8003 54.168 21.6537 54.168 25.4186C54.168 29.1823 57.2189 32.0357 61.0231 32.0357ZM61.0231 22.2441C62.7787 22.2441 64.2278 23.6798 64.2278 25.4186C64.2278 27.1573 62.7787 28.593 61.0231 28.593C59.2675 28.593 57.8183 27.1573 57.8183 25.4186C57.8183 23.6798 59.2675 22.2441 61.0231 22.2441Z" fill="#094792"/>
<path d="M78.0368 27.4949C79.2648 26.6508 80.2369 25.4004 80.2369 23.6964C80.2369 21.0462 78.1042 19.0874 75.409 19.0874H69.5945V31.7492H73.0742V28.3043H74.7108L76.2969 31.7492H80.2021L78.0368 27.4949ZM75.4102 25.1815H73.0754V22.1922H75.4102C76.1959 22.1922 76.7078 23.07 76.7078 23.6953C76.7078 24.3216 76.1959 25.1815 75.4102 25.1815Z" fill="#094792"/>
<path d="M82.3481 19.0874H85.8279V31.7492H82.3481V19.0874Z" fill="#094792"/>
<path d="M93.0555 19.0864L87.1904 31.7471H90.9194L91.5311 30.3137H95.8831L96.4948 31.7471H100.224L94.361 19.0864H93.0555ZM92.593 27.3076L93.674 24.8426H93.7436L94.8223 27.3076H92.593Z" fill="#094792"/>
<path d="M46.4411 31.7495H49.9209V22.1937H53.4175V19.0877H44.9954L53.1761 1.4375H1.15942L9.39073 19.2022H13.2286L16.3783 25.9978L19.5269 19.2022H23.3726L17.6108 31.6373H15.1537L27.1667 57.5626L39.4558 31.0401C38.5039 31.5913 37.3971 31.9067 36.2151 31.9067C32.5019 31.9067 29.552 29.1049 29.552 25.4074C29.552 21.7099 32.5019 18.9081 36.2151 18.9081C38.5881 18.9081 40.6591 20.1855 41.7861 22.0747L38.8845 23.8157C38.3378 22.9199 37.3421 22.2902 36.2151 22.2902C34.4921 22.2902 33.0991 23.7001 33.0991 25.4074C33.0991 27.1147 34.4921 28.5257 36.2151 28.5257C37.3433 28.5257 38.3378 27.9117 38.8845 26.9991L40.7961 28.1463L43.5552 22.1926H46.4389V31.7495H46.4411ZM27.9704 31.6373H24.4188V19.2022H27.9704V31.6373Z" fill="#094792"/>
<path d="M48.5035 42.2009C47.6897 42.2009 46.9421 41.8844 46.4864 41.5185L45.8286 42.5343C46.5088 43.0832 47.5393 43.3616 48.4979 43.3616C49.8606 43.3616 51.0898 42.6982 51.0898 41.2996C51.0898 40.1962 50.2041 39.7135 49.0738 39.5271L48.7168 39.4688C47.9558 39.3408 47.4091 39.2027 47.4091 38.7347C47.4091 38.2554 47.9097 37.9758 48.6203 37.9758C49.3129 37.9758 49.919 38.2048 50.4163 38.5135L51.0134 37.4819C50.2176 37.0083 49.479 36.8096 48.5945 36.8096C47.2452 36.8096 46.07 37.4954 46.07 38.8155C46.07 39.9616 46.8838 40.4543 48.0007 40.6294L48.4036 40.6934C49.2848 40.8337 49.7461 40.9976 49.7461 41.4354C49.7473 41.9226 49.2051 42.2009 48.5035 42.2009Z" fill="#094792"/>
<path d="M55.3777 42.9027L54.9433 41.9777C54.7042 42.1248 54.4023 42.2651 54.1216 42.2651C53.7557 42.2651 53.4661 42.0653 53.4661 41.5186V39.9168H55.0511V38.8673H53.4661V37.5652H52.2841V38.8673H51.4377V39.9168H52.2841V41.6129C52.2841 42.7478 52.8386 43.3629 53.9263 43.3629C54.5504 43.3629 54.9916 43.1642 55.3777 42.9027Z" fill="#094792"/>
<path d="M60.172 43.2508V38.8686H59.0181V39.3501C58.7285 38.9943 58.3086 38.7507 57.7059 38.7507C56.4992 38.7507 55.5854 39.7419 55.5854 41.0575C55.5854 42.3742 56.498 43.3642 57.7059 43.3642C58.3086 43.3642 58.7329 43.1195 59.0181 42.7704V43.2531H60.172V43.2508ZM57.9247 42.2642C57.2322 42.2642 56.7933 41.7254 56.7933 41.0563C56.7933 40.3862 57.2322 39.8497 57.9247 39.8497C58.5982 39.8497 59.054 40.3638 59.054 41.0563C59.054 41.7501 58.5982 42.2642 57.9247 42.2642Z" fill="#094792"/>
<path d="M63.2835 43.3629C63.9087 43.3629 64.351 43.1642 64.7349 42.9038L64.3005 41.98C64.0614 42.1259 63.7594 42.2662 63.4766 42.2662C63.1106 42.2662 62.821 42.0653 62.821 41.5198V39.9168H64.4105V38.8673H62.821V37.5652H61.6413V38.8673H60.7949V39.9168H61.6413V41.614C61.6413 42.7478 62.198 43.3629 63.2835 43.3629Z" fill="#094792"/>
<path d="M68.3943 41.9374C68.0766 42.2057 67.6669 42.3606 67.2852 42.3606C66.7307 42.3606 66.2873 42.0845 66.1594 41.4491H69.2676C69.2833 41.3492 69.29 41.1876 69.29 41.0518C69.2855 39.6857 68.4223 38.7495 67.1618 38.7495C65.8484 38.7495 64.9448 39.6902 64.9448 41.0697C64.9448 42.4493 65.8765 43.3619 67.219 43.3619C67.9565 43.3619 68.5907 43.1542 69.0869 42.6985L68.3943 41.9374ZM67.1505 39.7676C67.6557 39.7676 67.9947 40.0842 68.1047 40.6443H66.1639C66.2671 40.1021 66.5938 39.7676 67.1505 39.7676Z" fill="#094792"/>
<path d="M49.2906 47.8767V48.9296H50.9003C50.7331 49.831 50.1314 50.3294 49.1009 50.3294C48.0043 50.3294 47.1242 49.5189 47.1242 48.2258C47.1242 46.991 47.9661 46.1413 49.1223 46.1413C49.77 46.1413 50.2942 46.395 50.6522 46.8047L51.5615 45.9146C51.0013 45.3039 50.1639 44.9436 49.1604 44.9436C47.214 44.9436 45.8176 46.3142 45.8176 48.2269C45.8176 50.2721 47.3734 51.5046 49.1279 51.5046C50.9239 51.5046 52.2226 50.1554 52.2226 48.2359C52.2226 48.1192 52.217 48.0002 52.2035 47.8789H49.2906V47.8767Z" fill="#094792"/>
<path d="M55.1836 46.8899C53.8209 46.8899 52.8174 47.8766 52.8174 49.1966C52.8174 50.5178 53.822 51.5034 55.1836 51.5034C56.5497 51.5034 57.5588 50.5178 57.5588 49.1966C57.5588 47.8766 56.5497 46.8899 55.1836 46.8899ZM55.1836 50.4056C54.518 50.4056 54.0218 49.9094 54.0218 49.1966C54.0218 48.4872 54.518 47.9911 55.1836 47.9911C55.8481 47.9911 56.351 48.4872 56.351 49.1966C56.351 49.9094 55.8481 50.4056 55.1836 50.4056Z" fill="#094792"/>
<path d="M60.0943 50.1472L58.9583 47.0076H57.6753L59.4073 51.3909H60.7689L62.483 47.0076H61.2392L60.0943 50.1472Z" fill="#094792"/>
<path d="M64.8213 46.8899C63.5091 46.8899 62.6033 47.8317 62.6033 49.2101C62.6033 50.5885 63.5349 51.5023 64.8797 51.5023C65.6161 51.5023 66.2514 51.2957 66.7464 50.8389L66.0538 50.0778C65.7384 50.3438 65.3276 50.4999 64.9471 50.4999C64.3903 50.4999 63.9469 50.2237 63.8201 49.5918H66.9294C66.9429 49.4907 66.9518 49.328 66.9518 49.1921C66.9462 47.8261 66.083 46.8899 64.8213 46.8899ZM63.8257 48.7858C63.9301 48.2436 64.2556 47.9091 64.8124 47.9091C65.3175 47.9091 65.6565 48.2257 65.7654 48.7858H63.8257Z" fill="#094792"/>
<path d="M68.8769 47.4872V47.0068H67.7319V51.3901H68.9128V49.0037C68.9128 48.3493 69.2877 48.0148 69.8355 48.0148C70.0746 48.0148 70.3552 48.0698 70.5505 48.1562L70.7256 46.9854C70.5629 46.926 70.3642 46.8889 70.1116 46.8889C69.574 46.89 69.1541 47.0764 68.8769 47.4872Z" fill="#094792"/>
<path d="M73.789 46.8899C73.2917 46.8899 72.8124 47.0571 72.5004 47.5207V47.0066H71.3521V51.39H72.5329V48.9878C72.5329 48.3278 72.9539 47.9967 73.4612 47.9967C73.9989 47.9967 74.3155 48.3447 74.3155 48.98V51.3889H75.4963V48.5983C75.4952 47.5814 74.7847 46.8899 73.789 46.8899Z" fill="#094792"/>
<path d="M81.889 46.8899C81.3132 46.8899 80.7419 47.0852 80.4006 47.642C80.1065 47.1761 79.5879 46.8899 78.9537 46.8899C78.4576 46.8899 77.9771 47.0571 77.6639 47.5207V47.0066H76.5156V51.39H77.6976V48.9878C77.6976 48.3278 78.1186 47.9967 78.6248 47.9967C79.1636 47.9967 79.4802 48.3447 79.4802 48.98V51.3889H80.6621V48.9867C80.6621 48.3267 81.082 47.9956 81.5871 47.9956C82.1225 47.9956 82.4424 48.3435 82.4424 48.9789V51.3878H83.6188V48.5972C83.6166 47.5814 82.9217 46.8899 81.889 46.8899Z" fill="#094792"/>
<path d="M86.5844 46.8899C85.2722 46.8899 84.3652 47.8317 84.3652 49.2101C84.3652 50.5885 85.2992 51.5023 86.6405 51.5023C87.3792 51.5023 88.0111 51.2957 88.5106 50.8389L87.818 50.0778C87.5026 50.3438 87.0907 50.4999 86.7113 50.4999C86.1534 50.4999 85.7089 50.2237 85.5843 49.5918H88.6914C88.7048 49.4907 88.7138 49.328 88.7138 49.1921C88.7082 47.8261 87.845 46.8899 86.5844 46.8899ZM85.5888 48.7858C85.6931 48.2436 86.0176 47.9091 86.5754 47.9091C87.0817 47.9091 87.4196 48.2257 87.5296 48.7858H85.5888Z" fill="#094792"/>
<path d="M91.933 46.8899C91.4358 46.8899 90.9576 47.0571 90.6444 47.5207V47.0066H89.4961V51.39H90.6781V48.9878C90.6781 48.3278 91.0968 47.9967 91.6053 47.9967C92.143 47.9967 92.4606 48.3447 92.4606 48.98V51.3889H93.6404V48.5983C93.6392 47.5814 92.9287 46.8899 91.933 46.8899Z" fill="#094792"/>
<path d="M96.8641 50.4055C96.4959 50.4055 96.2063 50.2057 96.2063 49.659V48.0572H97.7935V47.0088H96.2063V45.7056H95.0265V47.0088H94.1802V48.0572H95.0265V49.7533C95.0265 50.8893 95.5833 51.5033 96.6688 51.5033C97.294 51.5033 97.734 51.3046 98.1202 51.0442L97.6858 50.1192C97.4467 50.2652 97.1447 50.4055 96.8641 50.4055Z" fill="#094792"/>
</svg>
